%TF.GenerationSoftware,KiCad,Pcbnew,8.0.0-8.0.0-1~ubuntu22.04.1*%
%TF.CreationDate,2024-03-14T12:00:59+07:00*%
%TF.ProjectId,daw00,64617730-302e-46b6-9963-61645f706362,rev?*%
%TF.SameCoordinates,Original*%
%TF.FileFunction,Paste,Bot*%
%TF.FilePolarity,Positive*%
%FSLAX46Y46*%
G04 Gerber Fmt 4.6, Leading zero omitted, Abs format (unit mm)*
G04 Created by KiCad (PCBNEW 8.0.0-8.0.0-1~ubuntu22.04.1) date 2024-03-14 12:00:59*
%MOMM*%
%LPD*%
G01*
G04 APERTURE LIST*
G04 Aperture macros list*
%AMRoundRect*
0 Rectangle with rounded corners*
0 $1 Rounding radius*
0 $2 $3 $4 $5 $6 $7 $8 $9 X,Y pos of 4 corners*
0 Add a 4 corners polygon primitive as box body*
4,1,4,$2,$3,$4,$5,$6,$7,$8,$9,$2,$3,0*
0 Add four circle primitives for the rounded corners*
1,1,$1+$1,$2,$3*
1,1,$1+$1,$4,$5*
1,1,$1+$1,$6,$7*
1,1,$1+$1,$8,$9*
0 Add four rect primitives between the rounded corners*
20,1,$1+$1,$2,$3,$4,$5,0*
20,1,$1+$1,$4,$5,$6,$7,0*
20,1,$1+$1,$6,$7,$8,$9,0*
20,1,$1+$1,$8,$9,$2,$3,0*%
G04 Aperture macros list end*
%ADD10R,2.800000X1.400000*%
%ADD11RoundRect,0.225000X-0.250000X0.225000X-0.250000X-0.225000X0.250000X-0.225000X0.250000X0.225000X0*%
%ADD12RoundRect,0.225000X-0.225000X-0.250000X0.225000X-0.250000X0.225000X0.250000X-0.225000X0.250000X0*%
%ADD13RoundRect,0.225000X0.225000X0.250000X-0.225000X0.250000X-0.225000X-0.250000X0.225000X-0.250000X0*%
%ADD14RoundRect,0.200000X-0.200000X-0.275000X0.200000X-0.275000X0.200000X0.275000X-0.200000X0.275000X0*%
%ADD15RoundRect,0.250000X0.250000X0.475000X-0.250000X0.475000X-0.250000X-0.475000X0.250000X-0.475000X0*%
%ADD16RoundRect,0.250000X-0.250000X-0.475000X0.250000X-0.475000X0.250000X0.475000X-0.250000X0.475000X0*%
%ADD17R,0.400000X1.200000*%
%ADD18RoundRect,0.200000X0.275000X-0.200000X0.275000X0.200000X-0.275000X0.200000X-0.275000X-0.200000X0*%
%ADD19RoundRect,0.225000X0.250000X-0.225000X0.250000X0.225000X-0.250000X0.225000X-0.250000X-0.225000X0*%
%ADD20RoundRect,0.200000X-0.275000X0.200000X-0.275000X-0.200000X0.275000X-0.200000X0.275000X0.200000X0*%
G04 APERTURE END LIST*
D10*
%TO.C,L11*%
X83566000Y-25060000D03*
X83566000Y-20660000D03*
%TD*%
D11*
%TO.C,C11*%
X38100000Y-50533000D03*
X38100000Y-52083000D03*
%TD*%
D12*
%TO.C,C95*%
X81013000Y-18288000D03*
X82563000Y-18288000D03*
%TD*%
D11*
%TO.C,C68*%
X78359000Y-50533000D03*
X78359000Y-52083000D03*
%TD*%
%TO.C,C25*%
X37465000Y-34163000D03*
X37465000Y-35713000D03*
%TD*%
D13*
%TO.C,C72*%
X90043000Y-36068000D03*
X88493000Y-36068000D03*
%TD*%
D14*
%TO.C,R18*%
X104077000Y-29591000D03*
X105727000Y-29591000D03*
%TD*%
D15*
%TO.C,C31*%
X49464000Y-16510000D03*
X47564000Y-16510000D03*
%TD*%
D16*
%TO.C,C36*%
X26990000Y-16510000D03*
X28890000Y-16510000D03*
%TD*%
D17*
%TO.C,U8*%
X84772500Y-47880000D03*
X84137500Y-47880000D03*
X83502500Y-47880000D03*
X82867500Y-47880000D03*
X82232500Y-47880000D03*
X81597500Y-47880000D03*
X80962500Y-47880000D03*
X80327500Y-47880000D03*
X79692500Y-47880000D03*
X79057500Y-47880000D03*
X78422500Y-47880000D03*
X77787500Y-47880000D03*
X77152500Y-47880000D03*
X76517500Y-47880000D03*
X75882500Y-47880000D03*
X75247500Y-47880000D03*
X74612500Y-47880000D03*
X73977500Y-47880000D03*
X73342500Y-47880000D03*
X72707500Y-47880000D03*
X72072500Y-47880000D03*
X71437500Y-47880000D03*
X70802500Y-47880000D03*
X70167500Y-47880000D03*
X69532500Y-47880000D03*
X68897500Y-47880000D03*
X68262500Y-47880000D03*
X67627500Y-47880000D03*
X67627500Y-38480000D03*
X68262500Y-38480000D03*
X68897500Y-38480000D03*
X69532500Y-38480000D03*
X70167500Y-38480000D03*
X70802500Y-38480000D03*
X71437500Y-38480000D03*
X72072500Y-38480000D03*
X72707500Y-38480000D03*
X73342500Y-38480000D03*
X73977500Y-38480000D03*
X74612500Y-38480000D03*
X75247500Y-38480000D03*
X75882500Y-38480000D03*
X76517500Y-38480000D03*
X77152500Y-38480000D03*
X77787500Y-38480000D03*
X78422500Y-38480000D03*
X79057500Y-38480000D03*
X79692500Y-38480000D03*
X80327500Y-38480000D03*
X80962500Y-38480000D03*
X81597500Y-38480000D03*
X82232500Y-38480000D03*
X82867500Y-38480000D03*
X83502500Y-38480000D03*
X84137500Y-38480000D03*
X84772500Y-38480000D03*
%TD*%
D11*
%TO.C,C81*%
X74549000Y-34150000D03*
X74549000Y-35700000D03*
%TD*%
D18*
%TO.C,R4*%
X72898000Y-52120800D03*
X72898000Y-50470800D03*
%TD*%
D19*
%TO.C,C80*%
X77978000Y-35700000D03*
X77978000Y-34150000D03*
%TD*%
D18*
%TO.C,R39*%
X126268000Y-82613000D03*
X126268000Y-80963000D03*
%TD*%
D11*
%TO.C,C65*%
X83439000Y-50533000D03*
X83439000Y-52083000D03*
%TD*%
D15*
%TO.C,C38*%
X18796000Y-16510000D03*
X16896000Y-16510000D03*
%TD*%
D18*
%TO.C,R5*%
X71374000Y-52133000D03*
X71374000Y-50483000D03*
%TD*%
D11*
%TO.C,C29*%
X27178000Y-34150000D03*
X27178000Y-35700000D03*
%TD*%
%TO.C,C66*%
X81915000Y-50533000D03*
X81915000Y-52083000D03*
%TD*%
D10*
%TO.C,L3*%
X40132000Y-25060000D03*
X40132000Y-20660000D03*
%TD*%
D11*
%TO.C,C27*%
X31115000Y-34150000D03*
X31115000Y-35700000D03*
%TD*%
D19*
%TO.C,C22*%
X33020000Y-27748000D03*
X33020000Y-26198000D03*
%TD*%
D13*
%TO.C,C15*%
X46580000Y-45339000D03*
X45030000Y-45339000D03*
%TD*%
D10*
%TO.C,L14*%
X69342000Y-25060000D03*
X69342000Y-20660000D03*
%TD*%
D13*
%TO.C,C100*%
X61976000Y-18288000D03*
X60426000Y-18288000D03*
%TD*%
D11*
%TO.C,C112*%
X123982000Y-81013000D03*
X123982000Y-82563000D03*
%TD*%
D19*
%TO.C,C76*%
X76200000Y-27458000D03*
X76200000Y-25908000D03*
%TD*%
%TO.C,C26*%
X34798000Y-35700000D03*
X34798000Y-34150000D03*
%TD*%
D11*
%TO.C,C83*%
X70612000Y-34163000D03*
X70612000Y-35713000D03*
%TD*%
D12*
%TO.C,C44*%
X27038000Y-18288000D03*
X28588000Y-18288000D03*
%TD*%
%TO.C,C41*%
X37820000Y-18288000D03*
X39370000Y-18288000D03*
%TD*%
D11*
%TO.C,C69*%
X76835000Y-50533000D03*
X76835000Y-52083000D03*
%TD*%
D13*
%TO.C,C93*%
X92583000Y-18288000D03*
X91033000Y-18288000D03*
%TD*%
D19*
%TO.C,C78*%
X82042000Y-35700000D03*
X82042000Y-34150000D03*
%TD*%
%TO.C,C84*%
X68199000Y-35700000D03*
X68199000Y-34150000D03*
%TD*%
D12*
%TO.C,C98*%
X70586000Y-18288000D03*
X72136000Y-18288000D03*
%TD*%
D11*
%TO.C,C67*%
X79883000Y-50520000D03*
X79883000Y-52070000D03*
%TD*%
D16*
%TO.C,C90*%
X70236000Y-16510000D03*
X72136000Y-16510000D03*
%TD*%
D15*
%TO.C,C85*%
X92964000Y-16510000D03*
X91064000Y-16510000D03*
%TD*%
%TO.C,C92*%
X61976000Y-16510000D03*
X60076000Y-16510000D03*
%TD*%
D16*
%TO.C,C33*%
X37592000Y-16510000D03*
X39492000Y-16510000D03*
%TD*%
D11*
%TO.C,C77*%
X84455000Y-34137000D03*
X84455000Y-35687000D03*
%TD*%
D19*
%TO.C,C82*%
X72136000Y-35700000D03*
X72136000Y-34150000D03*
%TD*%
D17*
%TO.C,U4*%
X41592500Y-47880000D03*
X40957500Y-47880000D03*
X40322500Y-47880000D03*
X39687500Y-47880000D03*
X39052500Y-47880000D03*
X38417500Y-47880000D03*
X37782500Y-47880000D03*
X37147500Y-47880000D03*
X36512500Y-47880000D03*
X35877500Y-47880000D03*
X35242500Y-47880000D03*
X34607500Y-47880000D03*
X33972500Y-47880000D03*
X33337500Y-47880000D03*
X32702500Y-47880000D03*
X32067500Y-47880000D03*
X31432500Y-47880000D03*
X30797500Y-47880000D03*
X30162500Y-47880000D03*
X29527500Y-47880000D03*
X28892500Y-47880000D03*
X28257500Y-47880000D03*
X27622500Y-47880000D03*
X26987500Y-47880000D03*
X26352500Y-47880000D03*
X25717500Y-47880000D03*
X25082500Y-47880000D03*
X24447500Y-47880000D03*
X24447500Y-38480000D03*
X25082500Y-38480000D03*
X25717500Y-38480000D03*
X26352500Y-38480000D03*
X26987500Y-38480000D03*
X27622500Y-38480000D03*
X28257500Y-38480000D03*
X28892500Y-38480000D03*
X29527500Y-38480000D03*
X30162500Y-38480000D03*
X30797500Y-38480000D03*
X31432500Y-38480000D03*
X32067500Y-38480000D03*
X32702500Y-38480000D03*
X33337500Y-38480000D03*
X33972500Y-38480000D03*
X34607500Y-38480000D03*
X35242500Y-38480000D03*
X35877500Y-38480000D03*
X36512500Y-38480000D03*
X37147500Y-38480000D03*
X37782500Y-38480000D03*
X38417500Y-38480000D03*
X39052500Y-38480000D03*
X39687500Y-38480000D03*
X40322500Y-38480000D03*
X40957500Y-38480000D03*
X41592500Y-38480000D03*
%TD*%
D13*
%TO.C,C46*%
X18796000Y-18288000D03*
X17246000Y-18288000D03*
%TD*%
D11*
%TO.C,C10*%
X39624000Y-50533000D03*
X39624000Y-52083000D03*
%TD*%
%TO.C,C14*%
X33147000Y-50546000D03*
X33147000Y-52096000D03*
%TD*%
%TO.C,C73*%
X64414400Y-33921400D03*
X64414400Y-35471400D03*
%TD*%
%TO.C,C79*%
X80518000Y-34150000D03*
X80518000Y-35700000D03*
%TD*%
D10*
%TO.C,L16*%
X62738000Y-25060000D03*
X62738000Y-20660000D03*
%TD*%
D13*
%TO.C,C18*%
X46622000Y-40259000D03*
X45072000Y-40259000D03*
%TD*%
D19*
%TO.C,C70*%
X87122000Y-48159000D03*
X87122000Y-46609000D03*
%TD*%
D11*
%TO.C,C12*%
X36195000Y-50533000D03*
X36195000Y-52083000D03*
%TD*%
D19*
%TO.C,C24*%
X38989000Y-35700000D03*
X38989000Y-34150000D03*
%TD*%
D10*
%TO.C,L6*%
X26162000Y-25060000D03*
X26162000Y-20660000D03*
%TD*%
D13*
%TO.C,C39*%
X49276000Y-18288000D03*
X47726000Y-18288000D03*
%TD*%
D19*
%TO.C,C28*%
X28702000Y-35713000D03*
X28702000Y-34163000D03*
%TD*%
D20*
%TO.C,R22*%
X28321000Y-50546000D03*
X28321000Y-52196000D03*
%TD*%
D16*
%TO.C,C87*%
X80650000Y-16510000D03*
X82550000Y-16510000D03*
%TD*%
D12*
%TO.C,C19*%
X19304000Y-36195000D03*
X20854000Y-36195000D03*
%TD*%
D11*
%TO.C,C23*%
X41402000Y-34150000D03*
X41402000Y-35700000D03*
%TD*%
D10*
%TO.C,L9*%
X90170000Y-25060000D03*
X90170000Y-20660000D03*
%TD*%
%TO.C,L1*%
X46736000Y-25060000D03*
X46736000Y-20660000D03*
%TD*%
D11*
%TO.C,C13*%
X34671000Y-50546000D03*
X34671000Y-52096000D03*
%TD*%
D19*
%TO.C,C30*%
X24765000Y-35687000D03*
X24765000Y-34137000D03*
%TD*%
D10*
%TO.C,L8*%
X19558000Y-25060000D03*
X19558000Y-20660000D03*
%TD*%
M02*
