%TF.GenerationSoftware,KiCad,Pcbnew,8.0.0-8.0.0-1~ubuntu22.04.1*%
%TF.CreationDate,2024-03-14T12:01:00+07:00*%
%TF.ProjectId,daw00,64617730-302e-46b6-9963-61645f706362,rev?*%
%TF.SameCoordinates,Original*%
%TF.FileFunction,Soldermask,Bot*%
%TF.FilePolarity,Negative*%
%FSLAX46Y46*%
G04 Gerber Fmt 4.6, Leading zero omitted, Abs format (unit mm)*
G04 Created by KiCad (PCBNEW 8.0.0-8.0.0-1~ubuntu22.04.1) date 2024-03-14 12:01:00*
%MOMM*%
%LPD*%
G01*
G04 APERTURE LIST*
G04 Aperture macros list*
%AMRoundRect*
0 Rectangle with rounded corners*
0 $1 Rounding radius*
0 $2 $3 $4 $5 $6 $7 $8 $9 X,Y pos of 4 corners*
0 Add a 4 corners polygon primitive as box body*
4,1,4,$2,$3,$4,$5,$6,$7,$8,$9,$2,$3,0*
0 Add four circle primitives for the rounded corners*
1,1,$1+$1,$2,$3*
1,1,$1+$1,$4,$5*
1,1,$1+$1,$6,$7*
1,1,$1+$1,$8,$9*
0 Add four rect primitives between the rounded corners*
20,1,$1+$1,$2,$3,$4,$5,0*
20,1,$1+$1,$4,$5,$6,$7,0*
20,1,$1+$1,$6,$7,$8,$9,0*
20,1,$1+$1,$8,$9,$2,$3,0*%
G04 Aperture macros list end*
%ADD10O,3.800000X8.000000*%
%ADD11RoundRect,0.102000X-0.654000X0.654000X-0.654000X-0.654000X0.654000X-0.654000X0.654000X0.654000X0*%
%ADD12C,1.512000*%
%ADD13C,3.200000*%
%ADD14R,1.600000X1.600000*%
%ADD15O,1.600000X1.600000*%
%ADD16C,3.600000*%
%ADD17C,2.500000*%
%ADD18C,1.400000*%
%ADD19O,1.400000X1.400000*%
%ADD20C,1.950000*%
%ADD21R,1.950000X1.950000*%
%ADD22R,2.000000X2.000000*%
%ADD23C,2.000000*%
%ADD24R,1.700000X1.700000*%
%ADD25O,1.700000X1.700000*%
%ADD26C,4.000000*%
%ADD27C,1.550000*%
%ADD28C,3.500000*%
%ADD29R,2.400000X2.400000*%
%ADD30C,2.400000*%
%ADD31R,3.000000X3.000000*%
%ADD32C,3.000000*%
%ADD33RoundRect,0.250000X0.725000X-0.600000X0.725000X0.600000X-0.725000X0.600000X-0.725000X-0.600000X0*%
%ADD34O,1.950000X1.700000*%
%ADD35R,2.800000X1.400000*%
%ADD36RoundRect,0.225000X-0.250000X0.225000X-0.250000X-0.225000X0.250000X-0.225000X0.250000X0.225000X0*%
%ADD37RoundRect,0.225000X-0.225000X-0.250000X0.225000X-0.250000X0.225000X0.250000X-0.225000X0.250000X0*%
%ADD38RoundRect,0.225000X0.225000X0.250000X-0.225000X0.250000X-0.225000X-0.250000X0.225000X-0.250000X0*%
%ADD39RoundRect,0.200000X-0.200000X-0.275000X0.200000X-0.275000X0.200000X0.275000X-0.200000X0.275000X0*%
%ADD40RoundRect,0.250000X0.250000X0.475000X-0.250000X0.475000X-0.250000X-0.475000X0.250000X-0.475000X0*%
%ADD41RoundRect,0.250000X-0.250000X-0.475000X0.250000X-0.475000X0.250000X0.475000X-0.250000X0.475000X0*%
%ADD42R,0.400000X1.200000*%
%ADD43RoundRect,0.200000X0.275000X-0.200000X0.275000X0.200000X-0.275000X0.200000X-0.275000X-0.200000X0*%
%ADD44RoundRect,0.225000X0.250000X-0.225000X0.250000X0.225000X-0.250000X0.225000X-0.250000X-0.225000X0*%
%ADD45O,3.500000X3.500000*%
%ADD46R,1.905000X2.000000*%
%ADD47O,1.905000X2.000000*%
%ADD48RoundRect,0.200000X-0.275000X0.200000X-0.275000X-0.200000X0.275000X-0.200000X0.275000X0.200000X0*%
G04 APERTURE END LIST*
D10*
%TO.C,F1*%
X132160000Y-9525000D03*
X137160000Y-9525000D03*
%TD*%
D11*
%TO.C,J12*%
X30594300Y-135819000D03*
D12*
X35445700Y-135819000D03*
X30594300Y-138359000D03*
X35445700Y-138359000D03*
X30594300Y-140899000D03*
X35445700Y-140899000D03*
X30594300Y-143439000D03*
X35445700Y-143439000D03*
X30594300Y-145979000D03*
X35445700Y-145979000D03*
X30594300Y-148519000D03*
X35445700Y-148519000D03*
%TD*%
D13*
%TO.C,REF\u002A\u002A*%
X144780000Y-5080000D03*
%TD*%
D14*
%TO.C,U16*%
X107424000Y-33899000D03*
D15*
X109964000Y-33899000D03*
X109964000Y-26279000D03*
X107424000Y-26279000D03*
%TD*%
D13*
%TO.C,REF\u002A\u002A*%
X17780000Y-43180000D03*
%TD*%
D16*
%TO.C,L19*%
X114046000Y-62860000D03*
X114046000Y-50160000D03*
%TD*%
D17*
%TO.C,TR1*%
X95161500Y-114081500D03*
X100161500Y-114081500D03*
X105161500Y-114081500D03*
X110161500Y-114081500D03*
X120231500Y-114081500D03*
X125161500Y-114081500D03*
X130161500Y-114081500D03*
X135161500Y-114081500D03*
X130161500Y-78081500D03*
X135161500Y-78081500D03*
X120231500Y-78081500D03*
X125161500Y-78081500D03*
X105161500Y-78081500D03*
X110161500Y-78081500D03*
X95161500Y-78081500D03*
X100161500Y-78081500D03*
X115161500Y-78081500D03*
X115161500Y-114081500D03*
%TD*%
D18*
%TO.C,R40*%
X136551200Y-46228000D03*
D19*
X131471200Y-46228000D03*
%TD*%
D13*
%TO.C,REF\u002A\u002A*%
X54610000Y-43180000D03*
%TD*%
%TO.C,REF\u002A\u002A*%
X5080000Y-5080000D03*
%TD*%
D20*
%TO.C,J6*%
X50640000Y-10740000D03*
D21*
X50640000Y-2540000D03*
D20*
X45640000Y-10740000D03*
X45640000Y-2540000D03*
X40640000Y-10740000D03*
X40640000Y-2540000D03*
X35640000Y-10740000D03*
X35640000Y-2540000D03*
X30640000Y-10740000D03*
X30640000Y-2540000D03*
X25640000Y-10740000D03*
X25640000Y-2540000D03*
X20640000Y-10740000D03*
X20640000Y-2540000D03*
X15640000Y-10740000D03*
X15640000Y-2540000D03*
%TD*%
D22*
%TO.C,C115*%
X122174000Y-44531677D03*
D23*
X122174000Y-39531677D03*
%TD*%
D24*
%TO.C,J13*%
X25146000Y-77526000D03*
D25*
X25146000Y-74986000D03*
X25146000Y-72446000D03*
X25146000Y-69906000D03*
X25146000Y-67366000D03*
%TD*%
D26*
%TO.C,L18*%
X140208000Y-17987000D03*
X140208000Y-28067000D03*
%TD*%
D27*
%TO.C,J2*%
X14280000Y-144939000D03*
X16780000Y-144939000D03*
X18780000Y-144939000D03*
X21280000Y-144939000D03*
X14280000Y-147559000D03*
X16780000Y-147559000D03*
X18780000Y-147559000D03*
X21280000Y-147559000D03*
D28*
X11210000Y-144589000D03*
X11210000Y-150269000D03*
X24350000Y-144589000D03*
X24350000Y-150269000D03*
%TD*%
D14*
%TO.C,U15*%
X101595000Y-33899000D03*
D15*
X104135000Y-33899000D03*
X104135000Y-26279000D03*
X101595000Y-26279000D03*
%TD*%
D13*
%TO.C,REF\u002A\u002A*%
X91440000Y-43180000D03*
%TD*%
D20*
%TO.C,J18*%
X94055000Y-10740000D03*
D21*
X94055000Y-2540000D03*
D20*
X89055000Y-10740000D03*
X89055000Y-2540000D03*
X84055000Y-10740000D03*
X84055000Y-2540000D03*
X79055000Y-10740000D03*
X79055000Y-2540000D03*
X74055000Y-10740000D03*
X74055000Y-2540000D03*
X69055000Y-10740000D03*
X69055000Y-2540000D03*
X64055000Y-10740000D03*
X64055000Y-2540000D03*
X59055000Y-10740000D03*
X59055000Y-2540000D03*
%TD*%
D29*
%TO.C,C107*%
X124852729Y-27940000D03*
D30*
X119852729Y-27940000D03*
%TD*%
D18*
%TO.C,R36*%
X102185000Y-123037600D03*
D19*
X97105000Y-123037600D03*
%TD*%
D18*
%TO.C,R37*%
X134239000Y-123063000D03*
D19*
X129159000Y-123063000D03*
%TD*%
D31*
%TO.C,J22*%
X117010000Y-16310000D03*
D32*
X117010000Y-3810000D03*
X109510000Y-16310000D03*
X109510000Y-3810000D03*
%TD*%
D22*
%TO.C,C114*%
X111587677Y-44404677D03*
D23*
X111587677Y-39404677D03*
%TD*%
D21*
%TO.C,J8*%
X102335000Y-10740000D03*
D20*
X102335000Y-2540000D03*
%TD*%
D24*
%TO.C,U12*%
X14732000Y-92639000D03*
D25*
X14732000Y-90099000D03*
X17272000Y-92639000D03*
X17272000Y-90099000D03*
X19812000Y-92639000D03*
X19812000Y-90099000D03*
X22352000Y-92639000D03*
X22352000Y-90099000D03*
X24892000Y-92639000D03*
X24892000Y-90099000D03*
X27432000Y-92639000D03*
X27432000Y-90099000D03*
X29972000Y-92639000D03*
X29972000Y-90099000D03*
X32512000Y-92639000D03*
X32512000Y-90099000D03*
X35052000Y-92639000D03*
X35052000Y-90099000D03*
X37592000Y-92639000D03*
X37592000Y-90099000D03*
X40132000Y-92639000D03*
X40132000Y-90099000D03*
X42672000Y-92639000D03*
X42672000Y-90099000D03*
D24*
X14732000Y-127618000D03*
D25*
X17272000Y-127618000D03*
X19812000Y-127618000D03*
X22352000Y-127618000D03*
X24892000Y-127618000D03*
X27432000Y-127618000D03*
X29972000Y-127618000D03*
X32512000Y-127618000D03*
X35052000Y-127618000D03*
X37592000Y-127618000D03*
X40132000Y-127618000D03*
X42672000Y-127618000D03*
X24892000Y-125151000D03*
X27432000Y-125151000D03*
X29972000Y-125151000D03*
X32512000Y-125151000D03*
X35052000Y-125151000D03*
X37592000Y-125151000D03*
X40132000Y-125151000D03*
X42672000Y-125151000D03*
%TD*%
D14*
%TO.C,U5*%
X95626000Y-33899000D03*
D15*
X98166000Y-33899000D03*
X98166000Y-26279000D03*
X95626000Y-26279000D03*
%TD*%
D24*
%TO.C,J3*%
X40513000Y-138867000D03*
D25*
X40513000Y-136327000D03*
X40513000Y-133787000D03*
%TD*%
D13*
%TO.C,REF\u002A\u002A*%
X145034000Y-152908000D03*
%TD*%
D11*
%TO.C,J20*%
X68580000Y-135819000D03*
D12*
X73431400Y-135819000D03*
X68580000Y-138359000D03*
X73431400Y-138359000D03*
X68580000Y-140899000D03*
X73431400Y-140899000D03*
X68580000Y-143439000D03*
X73431400Y-143439000D03*
X68580000Y-145979000D03*
X73431400Y-145979000D03*
X68580000Y-148519000D03*
X73431400Y-148519000D03*
%TD*%
D11*
%TO.C,J19*%
X49587150Y-135819000D03*
D12*
X54438550Y-135819000D03*
X49587150Y-138359000D03*
X54438550Y-138359000D03*
X49587150Y-140899000D03*
X54438550Y-140899000D03*
X49587150Y-143439000D03*
X54438550Y-143439000D03*
X49587150Y-145979000D03*
X54438550Y-145979000D03*
X49587150Y-148519000D03*
X54438550Y-148519000D03*
%TD*%
D22*
%TO.C,C113*%
X84836000Y-65359677D03*
D23*
X84836000Y-60359677D03*
%TD*%
D24*
%TO.C,J4*%
X70612000Y-100076000D03*
D25*
X70612000Y-102616000D03*
X70612000Y-105156000D03*
%TD*%
D24*
%TO.C,J21*%
X24892000Y-61468000D03*
D25*
X27432000Y-61468000D03*
X29972000Y-61468000D03*
%TD*%
D24*
%TO.C,J7*%
X25146000Y-81336000D03*
D25*
X25146000Y-83876000D03*
X25146000Y-86416000D03*
%TD*%
D18*
%TO.C,R38*%
X107138000Y-67310000D03*
D19*
X102058000Y-67310000D03*
%TD*%
D29*
%TO.C,C108*%
X142494000Y-38354000D03*
D30*
X137494000Y-38354000D03*
%TD*%
D33*
%TO.C,J15*%
X83139000Y-153416000D03*
D34*
X83139000Y-150916000D03*
X83139000Y-148416000D03*
%TD*%
D13*
%TO.C,REF\u002A\u002A*%
X5334000Y-152908000D03*
%TD*%
D35*
%TO.C,L11*%
X83566000Y-25060000D03*
X83566000Y-20660000D03*
%TD*%
D36*
%TO.C,C11*%
X38100000Y-50533000D03*
X38100000Y-52083000D03*
%TD*%
D37*
%TO.C,C95*%
X81013000Y-18288000D03*
X82563000Y-18288000D03*
%TD*%
D36*
%TO.C,C68*%
X78359000Y-50533000D03*
X78359000Y-52083000D03*
%TD*%
%TO.C,C25*%
X37465000Y-34163000D03*
X37465000Y-35713000D03*
%TD*%
D38*
%TO.C,C72*%
X90043000Y-36068000D03*
X88493000Y-36068000D03*
%TD*%
D39*
%TO.C,R18*%
X104077000Y-29591000D03*
X105727000Y-29591000D03*
%TD*%
D40*
%TO.C,C31*%
X49464000Y-16510000D03*
X47564000Y-16510000D03*
%TD*%
D41*
%TO.C,C36*%
X26990000Y-16510000D03*
X28890000Y-16510000D03*
%TD*%
D42*
%TO.C,U8*%
X84772500Y-47880000D03*
X84137500Y-47880000D03*
X83502500Y-47880000D03*
X82867500Y-47880000D03*
X82232500Y-47880000D03*
X81597500Y-47880000D03*
X80962500Y-47880000D03*
X80327500Y-47880000D03*
X79692500Y-47880000D03*
X79057500Y-47880000D03*
X78422500Y-47880000D03*
X77787500Y-47880000D03*
X77152500Y-47880000D03*
X76517500Y-47880000D03*
X75882500Y-47880000D03*
X75247500Y-47880000D03*
X74612500Y-47880000D03*
X73977500Y-47880000D03*
X73342500Y-47880000D03*
X72707500Y-47880000D03*
X72072500Y-47880000D03*
X71437500Y-47880000D03*
X70802500Y-47880000D03*
X70167500Y-47880000D03*
X69532500Y-47880000D03*
X68897500Y-47880000D03*
X68262500Y-47880000D03*
X67627500Y-47880000D03*
X67627500Y-38480000D03*
X68262500Y-38480000D03*
X68897500Y-38480000D03*
X69532500Y-38480000D03*
X70167500Y-38480000D03*
X70802500Y-38480000D03*
X71437500Y-38480000D03*
X72072500Y-38480000D03*
X72707500Y-38480000D03*
X73342500Y-38480000D03*
X73977500Y-38480000D03*
X74612500Y-38480000D03*
X75247500Y-38480000D03*
X75882500Y-38480000D03*
X76517500Y-38480000D03*
X77152500Y-38480000D03*
X77787500Y-38480000D03*
X78422500Y-38480000D03*
X79057500Y-38480000D03*
X79692500Y-38480000D03*
X80327500Y-38480000D03*
X80962500Y-38480000D03*
X81597500Y-38480000D03*
X82232500Y-38480000D03*
X82867500Y-38480000D03*
X83502500Y-38480000D03*
X84137500Y-38480000D03*
X84772500Y-38480000D03*
%TD*%
D36*
%TO.C,C81*%
X74549000Y-34150000D03*
X74549000Y-35700000D03*
%TD*%
D43*
%TO.C,R4*%
X72898000Y-52120800D03*
X72898000Y-50470800D03*
%TD*%
D44*
%TO.C,C80*%
X77978000Y-35700000D03*
X77978000Y-34150000D03*
%TD*%
D43*
%TO.C,R39*%
X126268000Y-82613000D03*
X126268000Y-80963000D03*
%TD*%
D36*
%TO.C,C65*%
X83439000Y-50533000D03*
X83439000Y-52083000D03*
%TD*%
D40*
%TO.C,C38*%
X18796000Y-16510000D03*
X16896000Y-16510000D03*
%TD*%
D43*
%TO.C,R5*%
X71374000Y-52133000D03*
X71374000Y-50483000D03*
%TD*%
D36*
%TO.C,C29*%
X27178000Y-34150000D03*
X27178000Y-35700000D03*
%TD*%
D45*
%TO.C,VT2*%
X95466500Y-145895500D03*
D46*
X98006500Y-129235500D03*
D47*
X95466500Y-129235500D03*
X92926500Y-129235500D03*
%TD*%
D36*
%TO.C,C66*%
X81915000Y-50533000D03*
X81915000Y-52083000D03*
%TD*%
D35*
%TO.C,L3*%
X40132000Y-25060000D03*
X40132000Y-20660000D03*
%TD*%
D36*
%TO.C,C27*%
X31115000Y-34150000D03*
X31115000Y-35700000D03*
%TD*%
D44*
%TO.C,C22*%
X33020000Y-27748000D03*
X33020000Y-26198000D03*
%TD*%
D38*
%TO.C,C15*%
X46580000Y-45339000D03*
X45030000Y-45339000D03*
%TD*%
D35*
%TO.C,L14*%
X69342000Y-25060000D03*
X69342000Y-20660000D03*
%TD*%
D38*
%TO.C,C100*%
X61976000Y-18288000D03*
X60426000Y-18288000D03*
%TD*%
D36*
%TO.C,C112*%
X123982000Y-81013000D03*
X123982000Y-82563000D03*
%TD*%
D45*
%TO.C,VT3*%
X132296500Y-145895500D03*
D46*
X134836500Y-129235500D03*
D47*
X132296500Y-129235500D03*
X129756500Y-129235500D03*
%TD*%
D44*
%TO.C,C76*%
X76200000Y-27458000D03*
X76200000Y-25908000D03*
%TD*%
%TO.C,C26*%
X34798000Y-35700000D03*
X34798000Y-34150000D03*
%TD*%
D36*
%TO.C,C83*%
X70612000Y-34163000D03*
X70612000Y-35713000D03*
%TD*%
D37*
%TO.C,C44*%
X27038000Y-18288000D03*
X28588000Y-18288000D03*
%TD*%
%TO.C,C41*%
X37820000Y-18288000D03*
X39370000Y-18288000D03*
%TD*%
D36*
%TO.C,C69*%
X76835000Y-50533000D03*
X76835000Y-52083000D03*
%TD*%
D38*
%TO.C,C93*%
X92583000Y-18288000D03*
X91033000Y-18288000D03*
%TD*%
D44*
%TO.C,C78*%
X82042000Y-35700000D03*
X82042000Y-34150000D03*
%TD*%
%TO.C,C84*%
X68199000Y-35700000D03*
X68199000Y-34150000D03*
%TD*%
D37*
%TO.C,C98*%
X70586000Y-18288000D03*
X72136000Y-18288000D03*
%TD*%
D36*
%TO.C,C67*%
X79883000Y-50520000D03*
X79883000Y-52070000D03*
%TD*%
D41*
%TO.C,C90*%
X70236000Y-16510000D03*
X72136000Y-16510000D03*
%TD*%
D40*
%TO.C,C85*%
X92964000Y-16510000D03*
X91064000Y-16510000D03*
%TD*%
%TO.C,C92*%
X61976000Y-16510000D03*
X60076000Y-16510000D03*
%TD*%
D41*
%TO.C,C33*%
X37592000Y-16510000D03*
X39492000Y-16510000D03*
%TD*%
D36*
%TO.C,C77*%
X84455000Y-34137000D03*
X84455000Y-35687000D03*
%TD*%
D44*
%TO.C,C82*%
X72136000Y-35700000D03*
X72136000Y-34150000D03*
%TD*%
D42*
%TO.C,U4*%
X41592500Y-47880000D03*
X40957500Y-47880000D03*
X40322500Y-47880000D03*
X39687500Y-47880000D03*
X39052500Y-47880000D03*
X38417500Y-47880000D03*
X37782500Y-47880000D03*
X37147500Y-47880000D03*
X36512500Y-47880000D03*
X35877500Y-47880000D03*
X35242500Y-47880000D03*
X34607500Y-47880000D03*
X33972500Y-47880000D03*
X33337500Y-47880000D03*
X32702500Y-47880000D03*
X32067500Y-47880000D03*
X31432500Y-47880000D03*
X30797500Y-47880000D03*
X30162500Y-47880000D03*
X29527500Y-47880000D03*
X28892500Y-47880000D03*
X28257500Y-47880000D03*
X27622500Y-47880000D03*
X26987500Y-47880000D03*
X26352500Y-47880000D03*
X25717500Y-47880000D03*
X25082500Y-47880000D03*
X24447500Y-47880000D03*
X24447500Y-38480000D03*
X25082500Y-38480000D03*
X25717500Y-38480000D03*
X26352500Y-38480000D03*
X26987500Y-38480000D03*
X27622500Y-38480000D03*
X28257500Y-38480000D03*
X28892500Y-38480000D03*
X29527500Y-38480000D03*
X30162500Y-38480000D03*
X30797500Y-38480000D03*
X31432500Y-38480000D03*
X32067500Y-38480000D03*
X32702500Y-38480000D03*
X33337500Y-38480000D03*
X33972500Y-38480000D03*
X34607500Y-38480000D03*
X35242500Y-38480000D03*
X35877500Y-38480000D03*
X36512500Y-38480000D03*
X37147500Y-38480000D03*
X37782500Y-38480000D03*
X38417500Y-38480000D03*
X39052500Y-38480000D03*
X39687500Y-38480000D03*
X40322500Y-38480000D03*
X40957500Y-38480000D03*
X41592500Y-38480000D03*
%TD*%
D38*
%TO.C,C46*%
X18796000Y-18288000D03*
X17246000Y-18288000D03*
%TD*%
D36*
%TO.C,C10*%
X39624000Y-50533000D03*
X39624000Y-52083000D03*
%TD*%
%TO.C,C14*%
X33147000Y-50546000D03*
X33147000Y-52096000D03*
%TD*%
%TO.C,C73*%
X64414400Y-33921400D03*
X64414400Y-35471400D03*
%TD*%
%TO.C,C79*%
X80518000Y-34150000D03*
X80518000Y-35700000D03*
%TD*%
D45*
%TO.C,VD9*%
X132334000Y-50650000D03*
D46*
X129794000Y-67310000D03*
D47*
X132334000Y-67310000D03*
X134874000Y-67310000D03*
%TD*%
D35*
%TO.C,L16*%
X62738000Y-25060000D03*
X62738000Y-20660000D03*
%TD*%
D38*
%TO.C,C18*%
X46622000Y-40259000D03*
X45072000Y-40259000D03*
%TD*%
D44*
%TO.C,C70*%
X87122000Y-48159000D03*
X87122000Y-46609000D03*
%TD*%
D36*
%TO.C,C12*%
X36195000Y-50533000D03*
X36195000Y-52083000D03*
%TD*%
D44*
%TO.C,C24*%
X38989000Y-35700000D03*
X38989000Y-34150000D03*
%TD*%
D35*
%TO.C,L6*%
X26162000Y-25060000D03*
X26162000Y-20660000D03*
%TD*%
D38*
%TO.C,C39*%
X49276000Y-18288000D03*
X47726000Y-18288000D03*
%TD*%
D44*
%TO.C,C28*%
X28702000Y-35713000D03*
X28702000Y-34163000D03*
%TD*%
D48*
%TO.C,R22*%
X28321000Y-50546000D03*
X28321000Y-52196000D03*
%TD*%
D41*
%TO.C,C87*%
X80650000Y-16510000D03*
X82550000Y-16510000D03*
%TD*%
D37*
%TO.C,C19*%
X19304000Y-36195000D03*
X20854000Y-36195000D03*
%TD*%
D36*
%TO.C,C23*%
X41402000Y-34150000D03*
X41402000Y-35700000D03*
%TD*%
D45*
%TO.C,VD8*%
X95504000Y-50650000D03*
D46*
X92964000Y-67310000D03*
D47*
X95504000Y-67310000D03*
X98044000Y-67310000D03*
%TD*%
D35*
%TO.C,L9*%
X90170000Y-25060000D03*
X90170000Y-20660000D03*
%TD*%
%TO.C,L1*%
X46736000Y-25060000D03*
X46736000Y-20660000D03*
%TD*%
D36*
%TO.C,C13*%
X34671000Y-50546000D03*
X34671000Y-52096000D03*
%TD*%
D44*
%TO.C,C30*%
X24765000Y-35687000D03*
X24765000Y-34137000D03*
%TD*%
D35*
%TO.C,L8*%
X19558000Y-25060000D03*
X19558000Y-20660000D03*
%TD*%
G36*
X112465039Y-1035685D02*
G01*
X112510794Y-1088489D01*
X112522000Y-1140000D01*
X112522000Y-17272000D01*
X119634000Y-24384000D01*
X122304000Y-24384000D01*
X122371039Y-24403685D01*
X122416794Y-24456489D01*
X122428000Y-24508000D01*
X122428000Y-29086000D01*
X122408315Y-29153039D01*
X122355511Y-29198794D01*
X122304000Y-29210000D01*
X114170000Y-29210000D01*
X114102961Y-29190315D01*
X114057206Y-29137511D01*
X114046000Y-29086000D01*
X114046000Y-26670000D01*
X105954319Y-18578319D01*
X105920834Y-18516996D01*
X105918000Y-18490638D01*
X105918000Y-1140000D01*
X105937685Y-1072961D01*
X105990489Y-1027206D01*
X106042000Y-1016000D01*
X112398000Y-1016000D01*
X112465039Y-1035685D01*
G37*
G36*
X96717039Y-130071685D02*
G01*
X96762794Y-130124489D01*
X96774000Y-130176000D01*
X96774000Y-130302000D01*
X131064000Y-130302000D01*
X131064000Y-130176000D01*
X131083685Y-130108961D01*
X131136489Y-130063206D01*
X131188000Y-130052000D01*
X133480000Y-130052000D01*
X133547039Y-130071685D01*
X133592794Y-130124489D01*
X133604000Y-130176000D01*
X133604000Y-130302000D01*
X144402000Y-130302000D01*
X144469039Y-130321685D01*
X144514794Y-130374489D01*
X144526000Y-130426000D01*
X144526000Y-138814000D01*
X144506315Y-138881039D01*
X144453511Y-138926794D01*
X144402000Y-138938000D01*
X91818000Y-138938000D01*
X91750961Y-138918315D01*
X91705206Y-138865511D01*
X91694000Y-138814000D01*
X91694000Y-130426000D01*
X91713685Y-130358961D01*
X91766489Y-130313206D01*
X91818000Y-130302000D01*
X94233923Y-130302000D01*
X94233847Y-130176075D01*
X94253491Y-130109024D01*
X94306267Y-130063237D01*
X94357847Y-130052000D01*
X96650000Y-130052000D01*
X96717039Y-130071685D01*
G37*
G36*
X103321039Y-69107685D02*
G01*
X103366794Y-69160489D01*
X103378000Y-69212000D01*
X103378000Y-79886000D01*
X103358315Y-79953039D01*
X103305511Y-79998794D01*
X103254000Y-80010000D01*
X91564000Y-80010000D01*
X91496961Y-79990315D01*
X91451206Y-79937511D01*
X91440000Y-79886000D01*
X91440000Y-69212000D01*
X91459685Y-69144961D01*
X91512489Y-69099206D01*
X91564000Y-69088000D01*
X103254000Y-69088000D01*
X103321039Y-69107685D01*
G37*
G36*
X126435039Y-69107685D02*
G01*
X126480794Y-69160489D01*
X126492000Y-69212000D01*
X126492000Y-79886000D01*
X126472315Y-79953039D01*
X126419511Y-79998794D01*
X126368000Y-80010000D01*
X103883000Y-80010000D01*
X103815961Y-79990315D01*
X103770206Y-79937511D01*
X103759000Y-79886000D01*
X103759000Y-69212000D01*
X103778685Y-69144961D01*
X103831489Y-69099206D01*
X103883000Y-69088000D01*
X126368000Y-69088000D01*
X126435039Y-69107685D01*
G37*
G36*
X133420039Y-1924685D02*
G01*
X133465794Y-1977489D01*
X133477000Y-2029000D01*
X133477000Y-17656000D01*
X133457315Y-17723039D01*
X133404511Y-17768794D01*
X133353000Y-17780000D01*
X115059000Y-17780000D01*
X114991961Y-17760315D01*
X114946206Y-17707511D01*
X114935000Y-17656000D01*
X114935000Y-2029000D01*
X114954685Y-1961961D01*
X115007489Y-1916206D01*
X115059000Y-1905000D01*
X133353000Y-1905000D01*
X133420039Y-1924685D01*
G37*
G36*
X137357039Y-69107685D02*
G01*
X137402794Y-69160489D01*
X137414000Y-69212000D01*
X137414000Y-79886000D01*
X137394315Y-79953039D01*
X137341511Y-79998794D01*
X137290000Y-80010000D01*
X128140000Y-80010000D01*
X128072961Y-79990315D01*
X128027206Y-79937511D01*
X128016000Y-79886000D01*
X128016000Y-69212000D01*
X128035685Y-69144961D01*
X128088489Y-69099206D01*
X128140000Y-69088000D01*
X137290000Y-69088000D01*
X137357039Y-69107685D01*
G37*
G36*
X137357039Y-102127685D02*
G01*
X137402794Y-102180489D01*
X137414000Y-102232000D01*
X137414000Y-102361998D01*
X137452318Y-102323681D01*
X137513641Y-102290196D01*
X137583333Y-102295180D01*
X137639267Y-102337051D01*
X137663684Y-102402515D01*
X137664000Y-102411362D01*
X137664000Y-110620000D01*
X137644315Y-110687039D01*
X137591511Y-110732794D01*
X137540000Y-110744000D01*
X137414000Y-110744000D01*
X137414000Y-122755737D01*
X137394315Y-122822776D01*
X137375371Y-122845669D01*
X135214182Y-124897241D01*
X135178102Y-124921091D01*
X133604000Y-125603000D01*
X133604000Y-130302000D01*
X133728168Y-130302000D01*
X133795207Y-130321685D01*
X133840962Y-130374489D01*
X133850906Y-130443647D01*
X133849785Y-130450193D01*
X133839781Y-130500482D01*
X133821267Y-130545179D01*
X133794481Y-130585268D01*
X133760268Y-130619481D01*
X133720179Y-130646267D01*
X133675482Y-130664781D01*
X133615982Y-130676617D01*
X133591789Y-130679000D01*
X131076211Y-130679000D01*
X131052019Y-130676617D01*
X130992518Y-130664781D01*
X130947820Y-130646267D01*
X130907731Y-130619481D01*
X130873518Y-130585268D01*
X130846732Y-130545179D01*
X130828218Y-130500480D01*
X130818215Y-130450191D01*
X130824442Y-130380599D01*
X130867305Y-130325422D01*
X130933195Y-130302178D01*
X130939832Y-130302000D01*
X131064000Y-130302000D01*
X131064000Y-124117250D01*
X131083685Y-124050211D01*
X131085548Y-124047396D01*
X132969000Y-121284999D01*
X132969000Y-116332000D01*
X121030999Y-116332000D01*
X117892591Y-119595945D01*
X117831936Y-119630626D01*
X117803208Y-119634000D01*
X112574792Y-119634000D01*
X112507753Y-119614315D01*
X112485409Y-119595945D01*
X109347001Y-116332000D01*
X97155000Y-116332000D01*
X97155000Y-120267816D01*
X98285085Y-121210361D01*
X98307578Y-121234953D01*
X98935953Y-122141610D01*
X98957962Y-122207922D01*
X98958018Y-122214393D01*
X98928793Y-123900099D01*
X98907950Y-123966788D01*
X98896352Y-123981594D01*
X98138147Y-124811371D01*
X98079208Y-124847365D01*
X96774000Y-125203035D01*
X96774000Y-130302000D01*
X96898168Y-130302000D01*
X96965207Y-130321685D01*
X97010962Y-130374489D01*
X97020906Y-130443647D01*
X97019785Y-130450193D01*
X97009781Y-130500482D01*
X96991267Y-130545179D01*
X96964481Y-130585268D01*
X96930268Y-130619481D01*
X96890179Y-130646267D01*
X96845482Y-130664781D01*
X96785982Y-130676617D01*
X96761789Y-130679000D01*
X94246211Y-130679000D01*
X94222019Y-130676617D01*
X94162518Y-130664781D01*
X94117820Y-130646267D01*
X94077731Y-130619481D01*
X94043519Y-130585269D01*
X94016722Y-130545165D01*
X93998214Y-130500500D01*
X93988199Y-130450226D01*
X93994406Y-130380632D01*
X94037254Y-130325443D01*
X94103137Y-130302180D01*
X94109809Y-130302000D01*
X94233923Y-130302000D01*
X94229550Y-123062999D01*
X93249142Y-121955188D01*
X93219454Y-121891940D01*
X93218000Y-121873009D01*
X93218000Y-112011000D01*
X93237685Y-111943961D01*
X93290489Y-111898206D01*
X93342000Y-111887000D01*
X103378000Y-111887000D01*
X103378000Y-102232000D01*
X103397685Y-102164961D01*
X103450489Y-102119206D01*
X103502000Y-102108000D01*
X137290000Y-102108000D01*
X137357039Y-102127685D01*
G37*
G36*
X140659039Y-1924685D02*
G01*
X140704794Y-1977489D01*
X140716000Y-2029000D01*
X140716000Y-20196000D01*
X140696315Y-20263039D01*
X140643511Y-20308794D01*
X140592000Y-20320000D01*
X135760000Y-20320000D01*
X135692961Y-20300315D01*
X135647206Y-20247511D01*
X135636000Y-20196000D01*
X135636000Y-2029000D01*
X135655685Y-1961961D01*
X135708489Y-1916206D01*
X135760000Y-1905000D01*
X140592000Y-1905000D01*
X140659039Y-1924685D01*
G37*
G36*
X147843677Y-24657685D02*
G01*
X147864319Y-24674319D01*
X148045681Y-24855681D01*
X148079166Y-24917004D01*
X148082000Y-24943362D01*
X148082000Y-104850638D01*
X148062315Y-104917677D01*
X148045681Y-104938319D01*
X142276319Y-110707681D01*
X142214996Y-110741166D01*
X142188638Y-110744000D01*
X137414000Y-110744000D01*
X137413103Y-110744896D01*
X137394315Y-110808882D01*
X137341511Y-110854637D01*
X137272353Y-110864581D01*
X137208797Y-110835556D01*
X137171023Y-110776778D01*
X137168383Y-110766036D01*
X137166383Y-110755982D01*
X137164000Y-110731789D01*
X137164000Y-102374210D01*
X137166383Y-102350017D01*
X137168383Y-102339963D01*
X137200769Y-102278053D01*
X137261485Y-102243479D01*
X137331254Y-102247220D01*
X137387926Y-102288087D01*
X137413507Y-102353105D01*
X137413901Y-102361959D01*
X137414000Y-102362000D01*
X140207999Y-99568000D01*
X140208000Y-99567999D01*
X140208000Y-40640000D01*
X123314000Y-40640000D01*
X123246961Y-40620315D01*
X123201206Y-40567511D01*
X123190000Y-40516000D01*
X123190000Y-24762000D01*
X123209685Y-24694961D01*
X123262489Y-24649206D01*
X123314000Y-24638000D01*
X147776638Y-24638000D01*
X147843677Y-24657685D01*
G37*
M02*
