%TF.GenerationSoftware,KiCad,Pcbnew,8.0.0-8.0.0-1~ubuntu22.04.1*%
%TF.CreationDate,2024-03-14T12:00:59+07:00*%
%TF.ProjectId,daw00,64617730-302e-46b6-9963-61645f706362,rev?*%
%TF.SameCoordinates,Original*%
%TF.FileFunction,Paste,Top*%
%TF.FilePolarity,Positive*%
%FSLAX46Y46*%
G04 Gerber Fmt 4.6, Leading zero omitted, Abs format (unit mm)*
G04 Created by KiCad (PCBNEW 8.0.0-8.0.0-1~ubuntu22.04.1) date 2024-03-14 12:00:59*
%MOMM*%
%LPD*%
G01*
G04 APERTURE LIST*
G04 Aperture macros list*
%AMRoundRect*
0 Rectangle with rounded corners*
0 $1 Rounding radius*
0 $2 $3 $4 $5 $6 $7 $8 $9 X,Y pos of 4 corners*
0 Add a 4 corners polygon primitive as box body*
4,1,4,$2,$3,$4,$5,$6,$7,$8,$9,$2,$3,0*
0 Add four circle primitives for the rounded corners*
1,1,$1+$1,$2,$3*
1,1,$1+$1,$4,$5*
1,1,$1+$1,$6,$7*
1,1,$1+$1,$8,$9*
0 Add four rect primitives between the rounded corners*
20,1,$1+$1,$2,$3,$4,$5,0*
20,1,$1+$1,$4,$5,$6,$7,0*
20,1,$1+$1,$6,$7,$8,$9,0*
20,1,$1+$1,$8,$9,$2,$3,0*%
%AMFreePoly0*
4,1,9,3.862500,-0.866500,0.737500,-0.866500,0.737500,-0.450000,-0.737500,-0.450000,-0.737500,0.450000,0.737500,0.450000,0.737500,0.866500,3.862500,0.866500,3.862500,-0.866500,3.862500,-0.866500,$1*%
G04 Aperture macros list end*
%ADD10RoundRect,0.200000X0.200000X0.275000X-0.200000X0.275000X-0.200000X-0.275000X0.200000X-0.275000X0*%
%ADD11RoundRect,0.250000X-0.450000X0.350000X-0.450000X-0.350000X0.450000X-0.350000X0.450000X0.350000X0*%
%ADD12RoundRect,0.250000X-0.650000X0.325000X-0.650000X-0.325000X0.650000X-0.325000X0.650000X0.325000X0*%
%ADD13RoundRect,0.225000X-0.225000X-0.250000X0.225000X-0.250000X0.225000X0.250000X-0.225000X0.250000X0*%
%ADD14RoundRect,0.200000X-0.200000X-0.275000X0.200000X-0.275000X0.200000X0.275000X-0.200000X0.275000X0*%
%ADD15RoundRect,0.250000X-0.250000X-0.475000X0.250000X-0.475000X0.250000X0.475000X-0.250000X0.475000X0*%
%ADD16RoundRect,0.225000X0.250000X-0.225000X0.250000X0.225000X-0.250000X0.225000X-0.250000X-0.225000X0*%
%ADD17RoundRect,0.250000X0.650000X-0.325000X0.650000X0.325000X-0.650000X0.325000X-0.650000X-0.325000X0*%
%ADD18RoundRect,0.200000X-0.275000X0.200000X-0.275000X-0.200000X0.275000X-0.200000X0.275000X0.200000X0*%
%ADD19R,2.800000X1.400000*%
%ADD20RoundRect,0.225000X-0.250000X0.225000X-0.250000X-0.225000X0.250000X-0.225000X0.250000X0.225000X0*%
%ADD21RoundRect,0.250000X-1.000000X1.400000X-1.000000X-1.400000X1.000000X-1.400000X1.000000X1.400000X0*%
%ADD22R,1.800000X2.000000*%
%ADD23RoundRect,0.237500X-0.287500X-0.237500X0.287500X-0.237500X0.287500X0.237500X-0.287500X0.237500X0*%
%ADD24R,1.300000X0.900000*%
%ADD25FreePoly0,180.000000*%
%ADD26RoundRect,0.218750X-0.256250X0.218750X-0.256250X-0.218750X0.256250X-0.218750X0.256250X0.218750X0*%
%ADD27RoundRect,0.200000X0.275000X-0.200000X0.275000X0.200000X-0.275000X0.200000X-0.275000X-0.200000X0*%
%ADD28RoundRect,0.250000X-0.650000X1.000000X-0.650000X-1.000000X0.650000X-1.000000X0.650000X1.000000X0*%
%ADD29RoundRect,0.250000X-1.400000X-1.000000X1.400000X-1.000000X1.400000X1.000000X-1.400000X1.000000X0*%
%ADD30RoundRect,0.250000X1.000000X0.650000X-1.000000X0.650000X-1.000000X-0.650000X1.000000X-0.650000X0*%
%ADD31RoundRect,0.150000X0.825000X0.150000X-0.825000X0.150000X-0.825000X-0.150000X0.825000X-0.150000X0*%
%ADD32RoundRect,0.250000X-1.000000X-0.650000X1.000000X-0.650000X1.000000X0.650000X-1.000000X0.650000X0*%
%ADD33RoundRect,0.250000X0.312500X0.625000X-0.312500X0.625000X-0.312500X-0.625000X0.312500X-0.625000X0*%
%ADD34RoundRect,0.225000X0.225000X0.250000X-0.225000X0.250000X-0.225000X-0.250000X0.225000X-0.250000X0*%
%ADD35RoundRect,0.250000X0.325000X0.650000X-0.325000X0.650000X-0.325000X-0.650000X0.325000X-0.650000X0*%
%ADD36RoundRect,0.250000X-0.325000X-0.650000X0.325000X-0.650000X0.325000X0.650000X-0.325000X0.650000X0*%
%ADD37RoundRect,0.250000X0.250000X0.475000X-0.250000X0.475000X-0.250000X-0.475000X0.250000X-0.475000X0*%
%ADD38RoundRect,0.237500X0.250000X0.237500X-0.250000X0.237500X-0.250000X-0.237500X0.250000X-0.237500X0*%
%ADD39RoundRect,0.100000X-0.637500X-0.100000X0.637500X-0.100000X0.637500X0.100000X-0.637500X0.100000X0*%
%ADD40RoundRect,0.150000X-0.587500X-0.150000X0.587500X-0.150000X0.587500X0.150000X-0.587500X0.150000X0*%
%ADD41RoundRect,0.150000X-0.825000X-0.150000X0.825000X-0.150000X0.825000X0.150000X-0.825000X0.150000X0*%
%ADD42RoundRect,0.250000X0.300000X-2.050000X0.300000X2.050000X-0.300000X2.050000X-0.300000X-2.050000X0*%
%ADD43RoundRect,0.250000X2.375000X-2.025000X2.375000X2.025000X-2.375000X2.025000X-2.375000X-2.025000X0*%
%ADD44RoundRect,0.150000X-0.150000X0.512500X-0.150000X-0.512500X0.150000X-0.512500X0.150000X0.512500X0*%
%ADD45RoundRect,0.150000X0.512500X0.150000X-0.512500X0.150000X-0.512500X-0.150000X0.512500X-0.150000X0*%
%ADD46R,0.250000X0.800000*%
%ADD47R,0.800000X0.250000*%
%ADD48RoundRect,0.250000X-0.312500X-0.625000X0.312500X-0.625000X0.312500X0.625000X-0.312500X0.625000X0*%
G04 APERTURE END LIST*
D10*
%TO.C,R24*%
X96075000Y-23876000D03*
X94425000Y-23876000D03*
%TD*%
D11*
%TO.C,FER1*%
X40894000Y-75200000D03*
X40894000Y-77200000D03*
%TD*%
D12*
%TO.C,C1*%
X43180000Y-75233000D03*
X43180000Y-78183000D03*
%TD*%
D13*
%TO.C,C111*%
X111963500Y-68742500D03*
X113513500Y-68742500D03*
%TD*%
D14*
%TO.C,R34*%
X94933000Y-132842000D03*
X96583000Y-132842000D03*
%TD*%
D15*
%TO.C,C32*%
X47630000Y-16510000D03*
X49530000Y-16510000D03*
%TD*%
D13*
%TO.C,C102*%
X106329500Y-135227500D03*
X107879500Y-135227500D03*
%TD*%
D12*
%TO.C,C63*%
X80472000Y-141774000D03*
X80472000Y-144724000D03*
%TD*%
D16*
%TO.C,C62*%
X82550000Y-143523000D03*
X82550000Y-141973000D03*
%TD*%
D17*
%TO.C,C20*%
X33020000Y-28096000D03*
X33020000Y-25146000D03*
%TD*%
D18*
%TO.C,R9*%
X57150000Y-57778000D03*
X57150000Y-59428000D03*
%TD*%
D19*
%TO.C,L10*%
X90170000Y-25060000D03*
X90170000Y-20660000D03*
%TD*%
D20*
%TO.C,C53*%
X54102000Y-57841000D03*
X54102000Y-59391000D03*
%TD*%
D21*
%TO.C,VD1*%
X133546000Y-17780000D03*
X126746000Y-17780000D03*
%TD*%
D16*
%TO.C,C51*%
X48244000Y-76721000D03*
X48244000Y-75171000D03*
%TD*%
%TO.C,C48*%
X46720000Y-76721000D03*
X46720000Y-75171000D03*
%TD*%
D22*
%TO.C,X1*%
X56896000Y-67298000D03*
X51816000Y-67298000D03*
X51816000Y-71498000D03*
X56896000Y-71498000D03*
%TD*%
D10*
%TO.C,R11*%
X52387000Y-59365000D03*
X50737000Y-59365000D03*
%TD*%
D23*
%TO.C,HL6*%
X47512000Y-57587000D03*
X49262000Y-57587000D03*
%TD*%
D15*
%TO.C,C91*%
X60076000Y-16510000D03*
X61976000Y-16510000D03*
%TD*%
D18*
%TO.C,R10*%
X55626000Y-57778000D03*
X55626000Y-59428000D03*
%TD*%
D10*
%TO.C,R19*%
X96075000Y-22225000D03*
X94425000Y-22225000D03*
%TD*%
D24*
%TO.C,Q1*%
X54782000Y-76938000D03*
D25*
X54694500Y-75438000D03*
D24*
X54782000Y-73938000D03*
%TD*%
D20*
%TO.C,C57*%
X49784000Y-75171000D03*
X49784000Y-76721000D03*
%TD*%
D26*
%TO.C,HL1*%
X23876000Y-54051000D03*
X23876000Y-55626000D03*
%TD*%
D19*
%TO.C,L15*%
X62738000Y-25060000D03*
X62738000Y-20660000D03*
%TD*%
%TO.C,L4*%
X40132000Y-25060000D03*
X40132000Y-20660000D03*
%TD*%
D27*
%TO.C,R26*%
X106596500Y-138846500D03*
X106596500Y-137196500D03*
%TD*%
D28*
%TO.C,VD15*%
X102467000Y-18415000D03*
X102467000Y-22415000D03*
%TD*%
D16*
%TO.C,C52*%
X59182000Y-71570000D03*
X59182000Y-70020000D03*
%TD*%
D29*
%TO.C,VD12*%
X86106000Y-77372000D03*
X86106000Y-84172000D03*
%TD*%
D26*
%TO.C,HL4*%
X66929000Y-54203500D03*
X66929000Y-55778500D03*
%TD*%
D30*
%TO.C,VD7*%
X121772500Y-126083500D03*
X117772500Y-126083500D03*
%TD*%
D10*
%TO.C,R31*%
X120733000Y-135227500D03*
X119083000Y-135227500D03*
%TD*%
D31*
%TO.C,U9*%
X56831000Y-64953000D03*
X56831000Y-63683000D03*
X56831000Y-62413000D03*
X56831000Y-61143000D03*
X51881000Y-61143000D03*
X51881000Y-62413000D03*
X51881000Y-63683000D03*
X51881000Y-64953000D03*
%TD*%
D13*
%TO.C,C94*%
X91046000Y-18288000D03*
X92596000Y-18288000D03*
%TD*%
D32*
%TO.C,VD6*%
X105612500Y-126083500D03*
X109612500Y-126083500D03*
%TD*%
D33*
%TO.C,R41*%
X103189500Y-36703000D03*
X100264500Y-36703000D03*
%TD*%
D32*
%TO.C,VD4*%
X120344500Y-129639500D03*
X124344500Y-129639500D03*
%TD*%
D14*
%TO.C,R25*%
X114407500Y-144117500D03*
X116057500Y-144117500D03*
%TD*%
D13*
%TO.C,C45*%
X17246000Y-18288000D03*
X18796000Y-18288000D03*
%TD*%
D34*
%TO.C,C7*%
X75718000Y-74676000D03*
X74168000Y-74676000D03*
%TD*%
D13*
%TO.C,C8*%
X79909000Y-57404000D03*
X81459000Y-57404000D03*
%TD*%
D19*
%TO.C,L2*%
X46736000Y-25060000D03*
X46736000Y-20660000D03*
%TD*%
D14*
%TO.C,R23*%
X59818000Y-97790000D03*
X61468000Y-97790000D03*
%TD*%
D18*
%TO.C,R12*%
X42672000Y-84956000D03*
X42672000Y-86606000D03*
%TD*%
%TO.C,R15*%
X40132000Y-84956000D03*
X40132000Y-86606000D03*
%TD*%
D35*
%TO.C,C17*%
X47322000Y-40259000D03*
X44372000Y-40259000D03*
%TD*%
D18*
%TO.C,R20*%
X68580000Y-50483000D03*
X68580000Y-52133000D03*
%TD*%
D20*
%TO.C,C5*%
X54102000Y-101333000D03*
X54102000Y-102883000D03*
%TD*%
D13*
%TO.C,C60*%
X79362000Y-135382000D03*
X80912000Y-135382000D03*
%TD*%
D14*
%TO.C,R45*%
X105538000Y-37084000D03*
X107188000Y-37084000D03*
%TD*%
D29*
%TO.C,VD13*%
X86106000Y-87405000D03*
X86106000Y-94205000D03*
%TD*%
D13*
%TO.C,C40*%
X47726000Y-18288000D03*
X49276000Y-18288000D03*
%TD*%
D27*
%TO.C,R3*%
X23876000Y-52197000D03*
X23876000Y-50547000D03*
%TD*%
D35*
%TO.C,C47*%
X47398200Y-44907200D03*
X44448200Y-44907200D03*
%TD*%
D18*
%TO.C,R2*%
X25400000Y-50547000D03*
X25400000Y-52197000D03*
%TD*%
D36*
%TO.C,C64*%
X82141800Y-45515000D03*
X85091800Y-45515000D03*
%TD*%
D26*
%TO.C,HL3*%
X68707000Y-54203500D03*
X68707000Y-55778500D03*
%TD*%
D37*
%TO.C,C88*%
X82550000Y-16510000D03*
X80650000Y-16510000D03*
%TD*%
D19*
%TO.C,L5*%
X26162000Y-25060000D03*
X26162000Y-20660000D03*
%TD*%
D34*
%TO.C,C43*%
X28588000Y-18288000D03*
X27038000Y-18288000D03*
%TD*%
D20*
%TO.C,C2*%
X38481000Y-38849000D03*
X38481000Y-40399000D03*
%TD*%
D11*
%TO.C,FER2*%
X37846000Y-77867000D03*
X37846000Y-79867000D03*
%TD*%
D10*
%TO.C,R14*%
X45493000Y-57587000D03*
X43843000Y-57587000D03*
%TD*%
D38*
%TO.C,JP1*%
X49172500Y-59365000D03*
X47347500Y-59365000D03*
%TD*%
D39*
%TO.C,U10*%
X60891500Y-100707000D03*
X60891500Y-101357000D03*
X60891500Y-102007000D03*
X60891500Y-102657000D03*
X60891500Y-103307000D03*
X60891500Y-103957000D03*
X60891500Y-104607000D03*
X60891500Y-105257000D03*
X60891500Y-105907000D03*
X60891500Y-106557000D03*
X66616500Y-106557000D03*
X66616500Y-105907000D03*
X66616500Y-105257000D03*
X66616500Y-104607000D03*
X66616500Y-103957000D03*
X66616500Y-103307000D03*
X66616500Y-102657000D03*
X66616500Y-102007000D03*
X66616500Y-101357000D03*
X66616500Y-100707000D03*
%TD*%
D29*
%TO.C,VD11*%
X79248000Y-87376000D03*
X79248000Y-94176000D03*
%TD*%
D40*
%TO.C,VT1*%
X106294000Y-143040500D03*
X106294000Y-144940500D03*
X108169000Y-143990500D03*
%TD*%
D13*
%TO.C,C54*%
X47485000Y-71374000D03*
X49035000Y-71374000D03*
%TD*%
D28*
%TO.C,VD2*%
X35433000Y-37370000D03*
X35433000Y-41370000D03*
%TD*%
D37*
%TO.C,C34*%
X39492000Y-16510000D03*
X37592000Y-16510000D03*
%TD*%
D41*
%TO.C,U13*%
X111106500Y-132560500D03*
X111106500Y-133830500D03*
X111106500Y-135100500D03*
X111106500Y-136370500D03*
X111106500Y-137640500D03*
X111106500Y-138910500D03*
X111106500Y-140180500D03*
X111106500Y-141450500D03*
X116056500Y-141450500D03*
X116056500Y-140180500D03*
X116056500Y-138910500D03*
X116056500Y-137640500D03*
X116056500Y-136370500D03*
X116056500Y-135100500D03*
X116056500Y-133830500D03*
X116056500Y-132560500D03*
%TD*%
D42*
%TO.C,U2*%
X70746000Y-70642000D03*
D43*
X70511000Y-63917000D03*
X76061000Y-63917000D03*
X70511000Y-59067000D03*
X76061000Y-59067000D03*
D42*
X75826000Y-70642000D03*
%TD*%
D19*
%TO.C,L12*%
X83566000Y-25060000D03*
X83566000Y-20660000D03*
%TD*%
D44*
%TO.C,U7*%
X80914000Y-137165500D03*
X79964000Y-137165500D03*
X79014000Y-137165500D03*
X79014000Y-139440500D03*
X80914000Y-139440500D03*
%TD*%
D19*
%TO.C,L13*%
X69342000Y-25060000D03*
X69342000Y-20660000D03*
%TD*%
D15*
%TO.C,C37*%
X16896000Y-16510000D03*
X18796000Y-16510000D03*
%TD*%
D10*
%TO.C,R33*%
X124209000Y-132560500D03*
X122559000Y-132560500D03*
%TD*%
D34*
%TO.C,C96*%
X82563000Y-18288000D03*
X81013000Y-18288000D03*
%TD*%
D29*
%TO.C,VD10*%
X79248000Y-77372000D03*
X79248000Y-84172000D03*
%TD*%
D16*
%TO.C,C61*%
X78359000Y-143904000D03*
X78359000Y-142354000D03*
%TD*%
D14*
%TO.C,R43*%
X107379000Y-23495000D03*
X109029000Y-23495000D03*
%TD*%
%TO.C,R7*%
X46657000Y-73576000D03*
X48307000Y-73576000D03*
%TD*%
D45*
%TO.C,U3*%
X58287500Y-102804000D03*
X58287500Y-101854000D03*
X58287500Y-100904000D03*
X56012500Y-100904000D03*
X56012500Y-102804000D03*
%TD*%
D36*
%TO.C,C21*%
X18096000Y-36195000D03*
X21046000Y-36195000D03*
%TD*%
D10*
%TO.C,R32*%
X120713000Y-137287000D03*
X119063000Y-137287000D03*
%TD*%
D15*
%TO.C,C86*%
X91064000Y-16510000D03*
X92964000Y-16510000D03*
%TD*%
D16*
%TO.C,C49*%
X34290000Y-59619000D03*
X34290000Y-58069000D03*
%TD*%
D12*
%TO.C,C75*%
X76200000Y-25143000D03*
X76200000Y-28093000D03*
%TD*%
D19*
%TO.C,L7*%
X19558000Y-25060000D03*
X19558000Y-20660000D03*
%TD*%
D13*
%TO.C,C109*%
X104254000Y-123012200D03*
X105804000Y-123012200D03*
%TD*%
D10*
%TO.C,R16*%
X52605000Y-57587000D03*
X50955000Y-57587000D03*
%TD*%
D23*
%TO.C,HL5*%
X40287000Y-57587000D03*
X42037000Y-57587000D03*
%TD*%
D34*
%TO.C,C56*%
X31255000Y-72319000D03*
X29705000Y-72319000D03*
%TD*%
D27*
%TO.C,R1*%
X57150000Y-105981000D03*
X57150000Y-104331000D03*
%TD*%
D12*
%TO.C,C6*%
X35433000Y-78027000D03*
X35433000Y-80977000D03*
%TD*%
D24*
%TO.C,U1*%
X31922000Y-41886000D03*
D25*
X31834500Y-40386000D03*
D24*
X31922000Y-38886000D03*
%TD*%
D35*
%TO.C,C71*%
X90756000Y-36068000D03*
X87806000Y-36068000D03*
%TD*%
D27*
%TO.C,R21*%
X67056000Y-52133000D03*
X67056000Y-50483000D03*
%TD*%
D12*
%TO.C,C104*%
X122428000Y-144526000D03*
X122428000Y-147476000D03*
%TD*%
D34*
%TO.C,C103*%
X111943500Y-143609500D03*
X110393500Y-143609500D03*
%TD*%
D46*
%TO.C,U6*%
X33866000Y-73493000D03*
X34366000Y-73493000D03*
X34866000Y-73493000D03*
X35366000Y-73493000D03*
X35866000Y-73493000D03*
X36366000Y-73493000D03*
X36866000Y-73493000D03*
X37366000Y-73493000D03*
X37866000Y-73493000D03*
X38366000Y-73493000D03*
X38866000Y-73493000D03*
X39366000Y-73493000D03*
X39866000Y-73493000D03*
X40366000Y-73493000D03*
X40866000Y-73493000D03*
X41366000Y-73493000D03*
X41866000Y-73493000D03*
X42366000Y-73493000D03*
X42866000Y-73493000D03*
X43366000Y-73493000D03*
X43866000Y-73493000D03*
X44366000Y-73493000D03*
D47*
X45116000Y-72743000D03*
X45116000Y-72243000D03*
X45116000Y-71743000D03*
X45116000Y-71243000D03*
X45116000Y-70743000D03*
X45116000Y-70243000D03*
X45116000Y-69743000D03*
X45116000Y-69243000D03*
X45116000Y-68743000D03*
X45116000Y-68243000D03*
X45116000Y-67743000D03*
X45116000Y-67243000D03*
X45116000Y-66743000D03*
X45116000Y-66243000D03*
X45116000Y-65743000D03*
X45116000Y-65243000D03*
X45116000Y-64743000D03*
X45116000Y-64243000D03*
X45116000Y-63743000D03*
X45116000Y-63243000D03*
X45116000Y-62743000D03*
X45116000Y-62243000D03*
D46*
X44366000Y-61493000D03*
X43866000Y-61493000D03*
X43366000Y-61493000D03*
X42866000Y-61493000D03*
X42366000Y-61493000D03*
X41866000Y-61493000D03*
X41366000Y-61493000D03*
X40866000Y-61493000D03*
X40366000Y-61493000D03*
X39866000Y-61493000D03*
X39366000Y-61493000D03*
X38866000Y-61493000D03*
X38366000Y-61493000D03*
X37866000Y-61493000D03*
X37366000Y-61493000D03*
X36866000Y-61493000D03*
X36366000Y-61493000D03*
X35866000Y-61493000D03*
X35366000Y-61493000D03*
X34866000Y-61493000D03*
X34366000Y-61493000D03*
X33866000Y-61493000D03*
D47*
X33116000Y-62243000D03*
X33116000Y-62743000D03*
X33116000Y-63243000D03*
X33116000Y-63743000D03*
X33116000Y-64243000D03*
X33116000Y-64743000D03*
X33116000Y-65243000D03*
X33116000Y-65743000D03*
X33116000Y-66243000D03*
X33116000Y-66743000D03*
X33116000Y-67243000D03*
X33116000Y-67743000D03*
X33116000Y-68243000D03*
X33116000Y-68743000D03*
X33116000Y-69243000D03*
X33116000Y-69743000D03*
X33116000Y-70243000D03*
X33116000Y-70743000D03*
X33116000Y-71243000D03*
X33116000Y-71743000D03*
X33116000Y-72243000D03*
X33116000Y-72743000D03*
%TD*%
D13*
%TO.C,C99*%
X60426000Y-18288000D03*
X61976000Y-18288000D03*
%TD*%
D34*
%TO.C,C97*%
X72136000Y-18288000D03*
X70586000Y-18288000D03*
%TD*%
D18*
%TO.C,R17*%
X45212000Y-84956000D03*
X45212000Y-86606000D03*
%TD*%
D20*
%TO.C,C3*%
X45196000Y-75171000D03*
X45196000Y-76721000D03*
%TD*%
D37*
%TO.C,C35*%
X28890000Y-16510000D03*
X26990000Y-16510000D03*
%TD*%
D13*
%TO.C,C110*%
X125397000Y-123063000D03*
X126947000Y-123063000D03*
%TD*%
D14*
%TO.C,R27*%
X106406500Y-147165500D03*
X108056500Y-147165500D03*
%TD*%
D26*
%TO.C,HL2*%
X25527000Y-54076500D03*
X25527000Y-55651500D03*
%TD*%
D12*
%TO.C,C105*%
X119253000Y-144526000D03*
X119253000Y-147476000D03*
%TD*%
D13*
%TO.C,C55*%
X46342000Y-62413000D03*
X47892000Y-62413000D03*
%TD*%
D14*
%TO.C,R6*%
X59818000Y-99314000D03*
X61468000Y-99314000D03*
%TD*%
D34*
%TO.C,C42*%
X39370000Y-18288000D03*
X37820000Y-18288000D03*
%TD*%
D36*
%TO.C,C16*%
X95553000Y-39116000D03*
X98503000Y-39116000D03*
%TD*%
D34*
%TO.C,C106*%
X115245500Y-147165500D03*
X113695500Y-147165500D03*
%TD*%
D16*
%TO.C,C4*%
X26670000Y-41656000D03*
X26670000Y-40106000D03*
%TD*%
D30*
%TO.C,VD3*%
X106564500Y-129639500D03*
X102564500Y-129639500D03*
%TD*%
D10*
%TO.C,R28*%
X111866500Y-147165500D03*
X110216500Y-147165500D03*
%TD*%
D28*
%TO.C,VD5*%
X113708500Y-125607500D03*
X113708500Y-129607500D03*
%TD*%
D27*
%TO.C,R8*%
X56515000Y-76200000D03*
X56515000Y-74550000D03*
%TD*%
D35*
%TO.C,C125*%
X103202000Y-39116000D03*
X100252000Y-39116000D03*
%TD*%
D14*
%TO.C,R30*%
X105136500Y-132560500D03*
X106786500Y-132560500D03*
%TD*%
D17*
%TO.C,C74*%
X63957200Y-35206200D03*
X63957200Y-32256200D03*
%TD*%
D18*
%TO.C,R13*%
X37719000Y-84956000D03*
X37719000Y-86606000D03*
%TD*%
D37*
%TO.C,C89*%
X72136000Y-16510000D03*
X70236000Y-16510000D03*
%TD*%
D28*
%TO.C,VD14*%
X98806000Y-18447000D03*
X98806000Y-22447000D03*
%TD*%
D14*
%TO.C,R35*%
X131255000Y-133223000D03*
X132905000Y-133223000D03*
%TD*%
D20*
%TO.C,C50*%
X33401000Y-78092000D03*
X33401000Y-79642000D03*
%TD*%
D48*
%TO.C,R42*%
X95565500Y-36703000D03*
X98490500Y-36703000D03*
%TD*%
D16*
%TO.C,C9*%
X58674000Y-105931000D03*
X58674000Y-104381000D03*
%TD*%
D14*
%TO.C,R29*%
X119975500Y-142191000D03*
X121625500Y-142191000D03*
%TD*%
M02*
