M48
; DRILL file {KiCad 8.0.0-8.0.0-1~ubuntu22.04.1} date 2024-03-14T12:00:53+0700
; FORMAT={-:-/ absolute / metric / decimal}
; #@! TF.CreationDate,2024-03-14T12:00:53+07:00
; #@! TF.GenerationSoftware,Kicad,Pcbnew,8.0.0-8.0.0-1~ubuntu22.04.1
; #@! TF.FileFunction,Plated,1,2,PTH
FMAT,2
METRIC
; #@! TA.AperFunction,Plated,PTH,ViaDrill
T1C0.300
; #@! TA.AperFunction,Plated,PTH,ViaDrill
T2C0.400
; #@! TA.AperFunction,Plated,PTH,ComponentDrill
T3C0.700
; #@! TA.AperFunction,Plated,PTH,ComponentDrill
T4C0.800
; #@! TA.AperFunction,Plated,PTH,ComponentDrill
T5C0.950
; #@! TA.AperFunction,Plated,PTH,ComponentDrill
T6C1.000
; #@! TA.AperFunction,Plated,PTH,ComponentDrill
T7C1.100
; #@! TA.AperFunction,Plated,PTH,ComponentDrill
T8C1.200
; #@! TA.AperFunction,Plated,PTH,ComponentDrill
T9C1.300
; #@! TA.AperFunction,Plated,PTH,ComponentDrill
T10C1.600
; #@! TA.AperFunction,Plated,PTH,ComponentDrill
T11C1.800
; #@! TA.AperFunction,Plated,PTH,ComponentDrill
T12C2.000
; #@! TA.AperFunction,Plated,PTH,ComponentDrill
T13C2.380
%
G90
G05
T1
X24.003Y-49.403
X25.547Y-49.476
X26.924Y-50.419
X27.813Y-75.819
X27.813Y-76.581
X27.813Y-77.216
X36.83Y-65.278
X36.83Y-66.04
X36.83Y-66.802
X37.592Y-65.278
X37.592Y-66.04
X37.592Y-66.7
X37.592Y-76.327
X38.354Y-65.278
X38.354Y-66.04
X38.354Y-66.7
X39.116Y-65.278
X39.116Y-66.04
X39.116Y-66.7
X39.751Y-45.847
X39.878Y-65.278
X39.878Y-66.04
X39.878Y-66.7
X40.64Y-65.278
X40.64Y-66.04
X40.64Y-66.7
X41.275Y-72.517
X41.402Y-65.278
X41.402Y-66.04
X41.402Y-66.7
X41.91Y-72.517
X42.545Y-72.517
X43.942Y-66.294
X43.942Y-67.056
X43.942Y-67.818
X44.991Y-73.66
X58.776Y-107.171
X59.792Y-121.768
X61.849Y-49.276
X64.389Y-50.165
X67.31Y-49.276
X68.782Y-49.276
X107.442Y-145.415
X109.22Y-133.477
X111.887Y-145.415
T2
X11.811Y-135.057
X12.573Y-136.073
X13.462Y-136.962
X19.685Y-103.251
X19.685Y-107.569
X20.955Y-37.846
X20.955Y-38.608
X21.717Y-37.846
X21.717Y-38.608
X22.479Y-37.846
X22.479Y-38.608
X22.479Y-95.123
X23.241Y-37.846
X23.241Y-38.608
X25.4Y-135.89
X26.162Y-45.974
X26.365Y-95.961
X26.67Y-32.004
X26.67Y-32.766
X26.924Y-45.03
X27.432Y-32.004
X27.432Y-32.766
X28.12Y-65.59
X28.321Y-53.34
X28.575Y-44.323
X28.702Y-118.547
X28.702Y-130.485
X29.464Y-65.448
X29.591Y-43.83
X29.972Y-103.251
X29.972Y-107.569
X30.607Y-68.509
X30.734Y-53.34
X30.853Y-67.094
X30.988Y-32.004
X30.988Y-32.766
X31.394Y-54.153
X31.496Y-29.21
X31.496Y-29.972
X31.496Y-30.734
X31.496Y-118.42
X31.496Y-130.485
X31.75Y-32.004
X31.75Y-32.766
X31.75Y-66.548
X31.902Y-50.343
X32.004Y-84.836
X32.123Y-69.524
X32.131Y-71.557
X32.131Y-73.66
X32.131Y-75.438
X32.258Y-29.21
X32.258Y-29.972
X32.258Y-30.734
X32.512Y-60.762
X32.512Y-107.569
X32.639Y-103.251
X32.661Y-49.453
X32.892Y-46.68
X33.02Y-29.21
X33.02Y-29.972
X33.02Y-30.734
X33.358Y-75.333
X33.607Y-49.113
X33.782Y-29.21
X33.782Y-29.972
X33.782Y-30.734
X33.909Y-118.547
X33.909Y-130.485
X34.238Y-75.817
X34.282Y-66.171
X34.29Y-32.004
X34.29Y-32.766
X34.29Y-86.868
X34.336Y-67.219
X34.544Y-29.21
X34.544Y-29.972
X34.544Y-30.734
X34.616Y-68.255
X34.636Y-71.093
X34.679Y-70.044
X34.798Y-82.86
X35.052Y-32.004
X35.052Y-32.766
X35.171Y-69.12
X35.179Y-103.251
X35.179Y-107.569
X35.375Y-75.761
X35.668Y-71.292
X35.687Y-63.302
X35.795Y-82.518
X35.807Y-54.229
X35.814Y-44.287
X36.232Y-58.262
X36.83Y-54.737
X36.83Y-78.867
X36.924Y-59.052
X37.105Y-63.464
X37.211Y-85.527
X37.338Y-81.209
X37.465Y-44.704
X37.678Y-59.782
X38.325Y-58.987
X38.349Y-53.133
X38.818Y-74.943
X38.862Y-32.004
X38.862Y-32.766
X38.967Y-81.756
X39.116Y-85.908
X39.122Y-53.887
X39.293Y-59.312
X39.624Y-32.004
X39.624Y-32.766
X39.882Y-62.846
X39.97Y-71.324
X40.306Y-59.312
X40.52Y-78.286
X40.64Y-79.502
X41.275Y-62.667
X41.529Y-85.908
X42.291Y-62.493
X42.353Y-59.319
X42.672Y-37.846
X42.672Y-38.608
X42.926Y-51.816
X43.397Y-59.209
X43.434Y-37.846
X43.434Y-38.608
X43.815Y-63.048
X44.069Y-85.908
X44.196Y-37.846
X44.196Y-38.608
X44.447Y-59.206
X44.806Y-91.643
X44.856Y-78.283
X44.907Y-96.012
X44.958Y-37.846
X44.958Y-38.608
X45.339Y-60.833
X46.26Y-58.977
X46.604Y-65.847
X47.578Y-64.629
X47.808Y-65.955
X48.094Y-131.081
X48.26Y-51.072
X48.26Y-53.195
X48.628Y-64.597
X48.768Y-133.66
X48.92Y-61.671
X49.312Y-68.879
X49.657Y-132.644
X50.546Y-102.037
X50.927Y-52.07
X51.067Y-83.779
X51.067Y-86.67
X51.943Y-88.265
X51.943Y-89.027
X51.943Y-89.789
X51.943Y-90.551
X52.036Y-85.146
X53.067Y-84.033
X53.086Y-80.162
X53.467Y-63.683
X54.229Y-56.642
X54.483Y-52.07
X54.483Y-61.468
X55.016Y-69.494
X55.03Y-125.405
X55.381Y-85.82
X55.792Y-124.262
X55.982Y-78.588
X55.982Y-79.553
X56.032Y-80.518
X56.124Y-85.105
X56.236Y-56.642
X56.642Y-60.452
X56.693Y-69.139
X56.845Y-56.083
X57.607Y-56.439
X57.9Y-85.32
X58.06Y-74.681
X58.42Y-138.74
X58.623Y-87.579
X59.27Y-52.46
X59.817Y-123.119
X59.87Y-53.34
X60.325Y-108.077
X60.452Y-56.388
X60.559Y-42.887
X61.341Y-55.372
X62.283Y-100.268
X62.705Y-104.341
X62.719Y-106.005
X62.761Y-103.293
X62.943Y-99.265
X63.304Y-105.187
X63.373Y-53.467
X63.5Y-101.6
X64.262Y-37.885
X64.262Y-38.608
X64.428Y-102.616
X65.024Y-37.885
X65.024Y-38.608
X65.786Y-37.885
X65.786Y-38.608
X66.04Y-74.727
X66.548Y-37.885
X66.548Y-38.608
X69.508Y-133.66
X69.734Y-45.618
X70.104Y-32.004
X70.104Y-32.766
X70.155Y-56.134
X70.27Y-132.644
X70.866Y-32.004
X70.866Y-32.766
X71.027Y-53.247
X71.038Y-45.066
X71.12Y-49.276
X71.12Y-131.628
X71.73Y-56.134
X71.904Y-44.418
X72.971Y-43.578
X74.168Y-32.004
X74.168Y-32.766
X74.295Y-51.181
X74.549Y-49.276
X74.676Y-29.21
X74.676Y-29.972
X74.676Y-30.734
X74.93Y-32.004
X74.93Y-32.766
X75.014Y-43.868
X75.311Y-49.276
X75.438Y-29.21
X75.438Y-29.972
X75.438Y-30.734
X75.562Y-46.168
X75.946Y-125.532
X76.073Y-49.276
X76.2Y-29.21
X76.2Y-29.972
X76.2Y-30.734
X76.575Y-46.135
X76.81Y-42.128
X76.835Y-124.389
X76.962Y-29.21
X76.962Y-29.972
X76.962Y-30.734
X77.17Y-45.31
X77.724Y-29.21
X77.724Y-29.972
X77.724Y-30.734
X77.724Y-32.004
X77.724Y-32.766
X77.724Y-123.176
X78.486Y-32.004
X78.486Y-32.766
X78.486Y-122.276
X79.096Y-45.517
X80.772Y-79.629
X80.899Y-133.604
X81.788Y-32.004
X81.788Y-32.766
X82.55Y-32.004
X82.55Y-32.766
X85.852Y-55.372
X85.979Y-37.846
X85.979Y-38.608
X86.741Y-37.846
X86.741Y-38.608
X87.503Y-37.846
X87.503Y-38.608
X88.151Y-38.517
X88.265Y-37.846
X88.494Y-56.49
X89.662Y-58.42
X89.662Y-150.114
X89.713Y-81.585
X89.764Y-103.886
X90.922Y-55.27
X90.957Y-37.77
X91.948Y-39.37
X91.948Y-121.564
X91.999Y-92.507
X94.234Y-39.37
X100.711Y-20.32
X102.997Y-150.241
X105.538Y-38.405
X117.475Y-147.165
X117.729Y-137.541
X121.031Y-147.165
X141.224Y-131.572
X141.224Y-132.588
X141.224Y-133.604
X141.224Y-134.62
X141.224Y-135.636
X141.224Y-136.652
X141.224Y-137.668
X141.224Y-138.684
X142.24Y-131.572
X142.24Y-132.588
X142.24Y-133.604
X142.24Y-134.62
X142.24Y-135.636
X142.24Y-136.652
X142.24Y-137.668
X142.24Y-138.684
X143.256Y-131.572
X143.256Y-132.588
X143.256Y-133.604
X143.256Y-134.62
X143.256Y-135.636
X143.256Y-136.652
X143.256Y-137.668
X143.256Y-138.684
T3
X97.105Y-123.038
X102.058Y-67.31
X102.185Y-123.038
X107.138Y-67.31
X129.159Y-123.063
X131.471Y-46.228
X134.239Y-123.063
X136.551Y-46.228
T4
X30.594Y-135.819
X30.594Y-138.359
X30.594Y-140.899
X30.594Y-143.439
X30.594Y-145.979
X30.594Y-148.519
X35.446Y-135.819
X35.446Y-138.359
X35.446Y-140.899
X35.446Y-143.439
X35.446Y-145.979
X35.446Y-148.519
X49.587Y-135.819
X49.587Y-138.359
X49.587Y-140.899
X49.587Y-143.439
X49.587Y-145.979
X49.587Y-148.519
X54.439Y-135.819
X54.439Y-138.359
X54.439Y-140.899
X54.439Y-143.439
X54.439Y-145.979
X54.439Y-148.519
X68.58Y-135.819
X68.58Y-138.359
X68.58Y-140.899
X68.58Y-143.439
X68.58Y-145.979
X68.58Y-148.519
X73.431Y-135.819
X73.431Y-138.359
X73.431Y-140.899
X73.431Y-143.439
X73.431Y-145.979
X73.431Y-148.519
X95.626Y-26.279
X95.626Y-33.899
X98.166Y-26.279
X98.166Y-33.899
X101.595Y-26.279
X101.595Y-33.899
X104.135Y-26.279
X104.135Y-33.899
X107.424Y-26.279
X107.424Y-33.899
X109.964Y-26.279
X109.964Y-33.899
T5
X83.139Y-148.416
X83.139Y-150.916
X83.139Y-153.416
T6
X14.28Y-144.939
X14.28Y-147.559
X14.732Y-90.099
X14.732Y-92.639
X14.732Y-127.618
X16.78Y-144.939
X16.78Y-147.559
X17.272Y-90.099
X17.272Y-92.639
X17.272Y-127.618
X18.78Y-144.939
X18.78Y-147.559
X19.812Y-90.099
X19.812Y-92.639
X19.812Y-127.618
X21.28Y-144.939
X21.28Y-147.559
X22.352Y-90.099
X22.352Y-92.639
X22.352Y-127.618
X24.892Y-61.468
X24.892Y-90.099
X24.892Y-92.639
X24.892Y-125.151
X24.892Y-127.618
X25.146Y-67.366
X25.146Y-69.906
X25.146Y-72.446
X25.146Y-74.986
X25.146Y-77.526
X25.146Y-81.336
X25.146Y-83.876
X25.146Y-86.416
X27.432Y-61.468
X27.432Y-90.099
X27.432Y-92.639
X27.432Y-125.151
X27.432Y-127.618
X29.972Y-61.468
X29.972Y-90.099
X29.972Y-92.639
X29.972Y-125.151
X29.972Y-127.618
X32.512Y-90.099
X32.512Y-92.639
X32.512Y-125.151
X32.512Y-127.618
X35.052Y-90.099
X35.052Y-92.639
X35.052Y-125.151
X35.052Y-127.618
X37.592Y-90.099
X37.592Y-92.639
X37.592Y-125.151
X37.592Y-127.618
X40.132Y-90.099
X40.132Y-92.639
X40.132Y-125.151
X40.132Y-127.618
X40.513Y-133.787
X40.513Y-136.327
X40.513Y-138.867
X42.672Y-90.099
X42.672Y-92.639
X42.672Y-125.151
X42.672Y-127.618
X70.612Y-100.076
X70.612Y-102.616
X70.612Y-105.156
X84.836Y-60.36
X84.836Y-65.36
X111.588Y-39.405
X111.588Y-44.405
X122.174Y-39.532
X122.174Y-44.532
T7
X92.926Y-129.236
X92.964Y-67.31
X95.466Y-129.236
X95.504Y-67.31
X98.007Y-129.236
X98.044Y-67.31
X129.756Y-129.236
X129.794Y-67.31
X132.296Y-129.236
X132.334Y-67.31
X134.837Y-129.236
X134.874Y-67.31
T8
X119.853Y-27.94
X124.853Y-27.94
X137.494Y-38.354
X142.494Y-38.354
T9
X15.64Y-2.54
X15.64Y-10.74
X20.64Y-2.54
X20.64Y-10.74
X25.64Y-2.54
X25.64Y-10.74
X30.64Y-2.54
X30.64Y-10.74
X35.64Y-2.54
X35.64Y-10.74
X40.64Y-2.54
X40.64Y-10.74
X45.64Y-2.54
X45.64Y-10.74
X50.64Y-2.54
X50.64Y-10.74
X59.055Y-2.54
X59.055Y-10.74
X64.055Y-2.54
X64.055Y-10.74
X69.055Y-2.54
X69.055Y-10.74
X74.055Y-2.54
X74.055Y-10.74
X79.055Y-2.54
X79.055Y-10.74
X84.055Y-2.54
X84.055Y-10.74
X89.055Y-2.54
X89.055Y-10.74
X94.055Y-2.54
X94.055Y-10.74
X102.335Y-2.54
X102.335Y-10.74
T10
X95.161Y-78.081
X95.161Y-114.081
X100.161Y-78.081
X100.161Y-114.081
X105.161Y-78.081
X105.161Y-114.081
X110.161Y-78.081
X110.161Y-114.081
X115.161Y-78.081
X115.161Y-114.081
X120.231Y-78.081
X120.231Y-114.081
X125.161Y-78.081
X125.161Y-114.081
X130.161Y-78.081
X130.161Y-114.081
X135.161Y-78.081
X135.161Y-114.081
T11
X114.046Y-50.16
X114.046Y-62.86
T12
X109.51Y-3.81
X109.51Y-16.31
X117.01Y-3.81
X117.01Y-16.31
X140.208Y-17.987
X140.208Y-28.067
T13
X11.21Y-144.589
X11.21Y-150.269
X24.35Y-144.589
X24.35Y-150.269
T12
G00X132.16Y-11.525
M15
G01X132.16Y-7.525
M16
G05
G00X137.16Y-11.525
M15
G01X137.16Y-7.525
M16
G05
M30
